<svg width="18" height="18" viewBox="0 0 18 18" fill="none" xmlns="http://www.w3.org/2000/svg">
<path d="M7.5877 13.4881H2.16211" stroke="#005555" stroke-width="1.5" stroke-linecap="round" stroke-linejoin="round"/>
<path fill-rule="evenodd" clip-rule="evenodd" d="M15.8386 13.4881C15.8386 14.6811 14.8715 15.6481 13.6786 15.6481C12.4856 15.6481 11.5186 14.6811 11.5186 13.4881C11.5186 12.2943 12.4856 11.3281 13.6786 11.3281C14.8715 11.3281 15.8386 12.2943 15.8386 13.4881Z" stroke="#005555" stroke-width="1.5" stroke-linecap="round" stroke-linejoin="round"/>
<path fill-rule="evenodd" clip-rule="evenodd" d="M10.4121 4.69531H15.8386H10.4121Z" fill="#005555"/>
<path d="M10.4121 4.69531H15.8386" stroke="#005555" stroke-width="1.5" stroke-linecap="round" stroke-linejoin="round"/>
<path fill-rule="evenodd" clip-rule="evenodd" d="M2.16211 4.69516C2.16211 5.88898 3.12917 6.85516 4.32211 6.85516C5.51505 6.85516 6.48211 5.88898 6.48211 4.69516C6.48211 3.50222 5.51505 2.53516 4.32211 2.53516C3.12917 2.53516 2.16211 3.50222 2.16211 4.69516Z" stroke="#005555" stroke-width="1.5" stroke-linecap="round" stroke-linejoin="round"/>
</svg>
